<?xml version="1.0" encoding="UTF-8"?>
<svg width="253px" height="39px" viewBox="0 0 253 39" version="1.1" xmlns="http://www.w3.org/2000/svg" xmlns:xlink="http://www.w3.org/1999/xlink">
    <title>HorizontalLogo</title>
    <g id="页面-1" stroke="none" stroke-width="1" fill="none" fill-rule="evenodd">
        <g id="HorizontalLogo">
            <g id="编组" transform="translate(46.000000, 2.000000)" fill="#FFFFFF" fill-rule="nonzero">
                <path d="M12.708,28.872 C10.86,28.872 9.156,28.56 7.596,27.936 C6.06,27.288 4.716,26.388 3.564,25.236 C2.436,24.06 1.56,22.68 0.936,21.096 C0.312,19.488 0,17.736 0,15.84 C0,13.992 0.324,12.288 0.972,10.728 C1.62,9.144 2.532,7.776 3.708,6.624 C4.884,5.448 6.264,4.536 7.848,3.888 C9.432,3.24 11.148,2.916 12.996,2.916 C14.196,2.916 15.372,3.084 16.524,3.42 C17.7,3.732 18.768,4.2 19.728,4.824 C20.4598,5.28807 21.112,5.81852 21.6845,6.41533 C22.0248,6.77012 22.0054,7.3245 21.6757,7.6892 L19.5693,10.0197 C19.1856,10.4441 18.5277,10.4567 18.0898,10.0885 C17.7554,9.8073 17.4135,9.5525 17.064,9.324 C16.464,8.892 15.816,8.568 15.12,8.352 C14.448,8.112 13.728,7.992 12.96,7.992 C11.928,7.992 10.956,8.184 10.044,8.568 C9.156,8.952 8.376,9.492 7.704,10.188 C7.032,10.86 6.492,11.688 6.084,12.672 C5.7,13.632 5.508,14.7 5.508,15.876 C5.508,17.076 5.7,18.168 6.084,19.152 C6.468,20.112 7.008,20.94 7.704,21.636 C8.4,22.308 9.228,22.836 10.188,23.22 C11.172,23.58 12.252,23.76 13.428,23.76 C14.196,23.76 14.94,23.652 15.66,23.436 C16.38,23.22 17.04,22.92 17.64,22.536 C17.8823,22.3869 18.1137,22.2288 18.3342,22.0616 C18.855,21.6669 19.633,21.7441 19.9789,22.2985 L21.528,24.7814 C21.7628,25.1576 21.7258,25.6489 21.3947,25.944 C20.8973,26.3872 20.2937,26.7992 19.584,27.18 C18.624,27.708 17.544,28.128 16.344,28.44 C15.144,28.728 13.932,28.872 12.708,28.872 Z" id="路径"></path>
                <path d="M34.9723,28.872 C33.0283,28.872 31.2883,28.452 29.7523,27.612 C28.2403,26.748 27.0403,25.572 26.1523,24.084 C25.2883,22.596 24.8563,20.892 24.8563,18.972 C24.8563,17.052 25.2883,15.36 26.1523,13.896 C27.0403,12.408 28.2403,11.232 29.7523,10.368 C31.2883,9.504 33.0283,9.072 34.9723,9.072 C36.8923,9.072 38.6083,9.504 40.1203,10.368 C41.6563,11.232 42.8563,12.408 43.7203,13.896 C44.5843,15.36 45.0163,17.052 45.0163,18.972 C45.0163,20.892 44.5843,22.596 43.7203,24.084 C42.8563,25.572 41.6563,26.748 40.1203,27.612 C38.6083,28.452 36.8923,28.872 34.9723,28.872 Z M34.9723,24.408 C35.9083,24.408 36.7483,24.18 37.4923,23.724 C38.2363,23.244 38.8123,22.596 39.2203,21.78 C39.6523,20.94 39.8683,20.004 39.8683,18.972 C39.8683,17.916 39.6523,16.98 39.2203,16.164 C38.8123,15.324 38.2363,14.676 37.4923,14.22 C36.7483,13.74 35.9083,13.5 34.9723,13.5 C34.0123,13.5 33.1603,13.74 32.4163,14.22 C31.6723,14.7 31.0843,15.348 30.6523,16.164 C30.2203,16.98 30.0163,17.916 30.0403,18.972 C30.0163,20.004 30.2203,20.94 30.6523,21.78 C31.0843,22.596 31.6723,23.244 32.4163,23.724 C33.1603,24.18 34.0123,24.408 34.9723,24.408 Z" id="形状"></path>
                <path d="M50.2584,28.512 C49.7061,28.512 49.2584,28.0643 49.2584,27.512 L49.2584,2.872 C49.2584,2.31972 49.7061,1.872 50.2584,1.872 L53.3704,1.872 C53.9227,1.872 54.3704,2.31972 54.3704,2.872 L54.3704,27.512 C54.3704,28.0643 53.9227,28.512 53.3704,28.512 L50.2584,28.512 Z" id="路径"></path>
                <path d="M68.423,28.872 C66.479,28.872 64.739,28.452 63.203,27.612 C61.691,26.748 60.491,25.572 59.603,24.084 C58.739,22.596 58.307,20.892 58.307,18.972 C58.307,17.052 58.739,15.36 59.603,13.896 C60.491,12.408 61.691,11.232 63.203,10.368 C64.739,9.504 66.479,9.072 68.423,9.072 C70.343,9.072 72.059,9.504 73.571,10.368 C75.107,11.232 76.307,12.408 77.171,13.896 C78.035,15.36 78.467,17.052 78.467,18.972 C78.467,20.892 78.035,22.596 77.171,24.084 C76.307,25.572 75.107,26.748 73.571,27.612 C72.059,28.452 70.343,28.872 68.423,28.872 Z M68.423,24.408 C69.359,24.408 70.199,24.18 70.943,23.724 C71.687,23.244 72.263,22.596 72.671,21.78 C73.103,20.94 73.319,20.004 73.319,18.972 C73.319,17.916 73.103,16.98 72.671,16.164 C72.263,15.324 71.687,14.676 70.943,14.22 C70.199,13.74 69.359,13.5 68.423,13.5 C67.463,13.5 66.611,13.74 65.867,14.22 C65.123,14.7 64.535,15.348 64.103,16.164 C63.671,16.98 63.467,17.916 63.491,18.972 C63.467,20.004 63.671,20.94 64.103,21.78 C64.535,22.596 65.123,23.244 65.867,23.724 C66.611,24.18 67.463,24.408 68.423,24.408 Z" id="形状"></path>
                <path d="M83.673,28.512 C83.121,28.512 82.673,28.0643 82.673,27.512 L82.673,10.468 C82.673,9.9157 83.121,9.468 83.673,9.468 L86.634,9.468 C87.175,9.468 87.618,9.898 87.633,10.4386 L87.745,14.2477 C87.757,14.6408 87.249,14.8065 87.027,14.4822 L87.027,14.4822 C86.96,14.3846 86.94,14.262 86.976,14.1493 C87.267,13.2362 87.716,12.4078 88.325,11.664 C88.973,10.848 89.729,10.212 90.593,9.756 C91.481,9.3 92.405,9.072 93.365,9.072 C93.773,9.072 94.169,9.108 94.553,9.18 C94.589,9.1868 94.625,9.1937 94.66,9.2008 C95.16,9.3004 95.434,9.807 95.313,10.3023 L94.419,13.9727 C94.285,14.5232 93.664,14.8178 93.113,14.688 L93.113,14.688 C92.705,14.568 92.285,14.508 91.853,14.508 C91.277,14.508 90.737,14.616 90.233,14.832 C89.753,15.024 89.333,15.312 88.973,15.696 C88.613,16.056 88.325,16.488 88.109,16.992 C87.917,17.496 87.821,18.048 87.821,18.648 L87.821,27.512 C87.821,28.0643 87.373,28.512 86.821,28.512 L83.673,28.512 Z" id="路径"></path>
                <path d="M100.538,28.512 C99.986,28.512 99.538,28.0643 99.538,27.512 L99.538,4.312 C99.538,3.75971 99.986,3.312 100.538,3.312 L103.911,3.312 C104.258,3.312 104.581,3.4924 104.763,3.78848 L112.794,16.8587 C113.166,17.464 112.725,18.2417 112.015,18.2338 L112.015,18.2338 C111.311,18.226 110.887,17.4513 111.259,16.8539 L119.404,3.78311 C119.587,3.49009 119.908,3.312 120.253,3.312 L123.414,3.312 C123.966,3.312 124.414,3.75972 124.414,4.312 L124.414,27.512 C124.414,28.0643 123.966,28.512 123.414,28.512 L120.122,28.512 C119.57,28.512 119.122,28.0643 119.122,27.512 L119.122,19.872 C119.122,17.712 119.17,15.768 119.266,14.04 C119.349,12.8452 119.466,11.6562 119.618,10.4729 C119.674,10.0414 120.258,9.9769 120.413,10.3831 L120.413,10.3831 C120.461,10.5094 120.447,10.6511 120.373,10.7648 L113.405,21.5738 C113.221,21.8594 112.905,22.032 112.565,22.032 L111.283,22.032 C110.941,22.032 110.623,21.8573 110.439,21.5687 L103.607,10.828 C103.538,10.7194 103.523,10.5851 103.565,10.4634 L103.565,10.4634 C103.708,10.05 104.294,10.1039 104.349,10.538 C104.486,11.6243 104.586,12.7316 104.65,13.86 C104.77,15.54 104.83,17.544 104.83,19.872 L104.83,27.512 C104.83,28.0643 104.382,28.512 103.83,28.512 L100.538,28.512 Z" id="路径"></path>
                <path d="M137.736,28.872 C136.152,28.872 134.724,28.44 133.452,27.576 C132.18,26.712 131.172,25.536 130.428,24.048 C129.684,22.56 129.312,20.856 129.312,18.936 C129.312,17.016 129.684,15.324 130.428,13.86 C131.196,12.372 132.228,11.208 133.524,10.368 C134.82,9.504 136.296,9.072 137.952,9.072 C138.888,9.072 139.74,9.216 140.508,9.504 C141.3,9.768 141.984,10.14 142.56,10.62 C143.16,11.1 143.664,11.652 144.072,12.276 C144.35,12.7019 144.573,13.1502 144.739,13.6208 C144.851,13.9346 144.574,14.2317 144.246,14.177 L144.246,14.177 C144.021,14.1395 143.856,13.9448 143.856,13.7167 L143.856,10.468 C143.856,9.9157 144.303,9.468 144.856,9.468 L147.932,9.468 C148.484,9.468 148.932,9.9157 148.932,10.468 L148.932,27.512 C148.932,28.0643 148.484,28.512 147.932,28.512 L144.784,28.512 C144.231,28.512 143.784,28.0643 143.784,27.512 L143.784,24.3839 C143.784,24.1323 143.975,23.9221 144.226,23.8986 L144.226,23.8986 C144.567,23.8666 144.832,24.1882 144.699,24.5042 C144.518,24.9318 144.285,25.3438 144,25.74 C143.568,26.34 143.028,26.88 142.38,27.36 C141.756,27.816 141.048,28.188 140.256,28.476 C139.464,28.74 138.624,28.872 137.736,28.872 Z M139.14,24.444 C140.1,24.444 140.94,24.216 141.66,23.76 C142.38,23.304 142.932,22.668 143.316,21.852 C143.724,21.012 143.928,20.04 143.928,18.936 C143.928,17.856 143.724,16.908 143.316,16.092 C142.932,15.276 142.38,14.64 141.66,14.184 C140.94,13.704 140.1,13.464 139.14,13.464 C138.204,13.464 137.376,13.704 136.656,14.184 C135.96,14.64 135.408,15.276 135,16.092 C134.592,16.908 134.388,17.856 134.388,18.936 C134.388,20.04 134.592,21.012 135,21.852 C135.408,22.668 135.96,23.304 136.656,23.76 C137.376,24.216 138.204,24.444 139.14,24.444 Z" id="形状"></path>
                <path d="M163.093,36.792 C161.581,36.792 160.093,36.564 158.629,36.108 C157.504,35.776 156.542,35.3661 155.743,34.8782 C155.335,34.6295 155.216,34.1074 155.426,33.6789 L156.351,31.7931 C156.621,31.2419 157.321,31.0634 157.868,31.3413 C158.076,31.447 158.294,31.5479 158.521,31.644 C159.145,31.908 159.793,32.112 160.465,32.256 C161.161,32.4 161.869,32.472 162.589,32.472 C163.837,32.472 164.857,32.28 165.649,31.896 C166.465,31.512 167.077,30.936 167.485,30.168 C167.893,29.424 168.097,28.464 168.097,27.288 L168.097,24.4683 C168.097,24.2144 168.33,24.0246 168.579,24.0764 L168.579,24.0764 C168.791,24.1207 168.932,24.3272 168.871,24.5356 C168.682,25.1832 168.316,25.7887 167.773,26.352 C167.125,27 166.309,27.528 165.325,27.936 C164.341,28.32 163.333,28.512 162.301,28.512 C160.525,28.512 158.953,28.104 157.585,27.288 C156.217,26.472 155.137,25.344 154.345,23.904 C153.553,22.464 153.157,20.808 153.157,18.936 C153.157,17.016 153.541,15.324 154.309,13.86 C155.101,12.372 156.169,11.208 157.513,10.368 C158.881,9.504 160.429,9.072 162.157,9.072 C162.877,9.072 163.561,9.156 164.209,9.324 C164.881,9.492 165.493,9.732 166.045,10.044 C166.621,10.332 167.125,10.668 167.557,11.052 C168.013,11.412 168.385,11.808 168.673,12.24 C168.868,12.5324 169.013,12.8249 169.109,13.1173 C169.186,13.3505 169.033,13.5856 168.797,13.6508 L168.797,13.6508 C168.485,13.7367 168.18,13.496 168.19,13.1731 L168.281,10.435 C168.299,9.8958 168.741,9.468 169.28,9.468 L172.209,9.468 C172.761,9.468 173.209,9.9157 173.209,10.468 L173.209,27.072 C173.209,28.632 172.981,30.012 172.525,31.212 C172.069,32.412 171.397,33.42 170.509,34.236 C169.645,35.076 168.577,35.712 167.305,36.144 C166.057,36.576 164.653,36.792 163.093,36.792 Z M163.237,24.408 C164.245,24.408 165.121,24.18 165.865,23.724 C166.633,23.268 167.221,22.632 167.629,21.816 C168.037,21 168.241,20.04 168.241,18.936 C168.241,17.856 168.037,16.908 167.629,16.092 C167.221,15.252 166.633,14.604 165.865,14.148 C165.121,13.692 164.245,13.464 163.237,13.464 C162.253,13.464 161.377,13.704 160.609,14.184 C159.865,14.64 159.289,15.276 158.881,16.092 C158.473,16.908 158.269,17.856 158.269,18.936 C158.269,20.016 158.473,20.976 158.881,21.816 C159.289,22.632 159.865,23.268 160.609,23.724 C161.377,24.18 162.253,24.408 163.237,24.408 Z" id="形状"></path>
                <path d="M180.08,28.512 C179.528,28.512 179.08,28.0643 179.08,27.512 L179.08,10.468 C179.08,9.9157 179.528,9.468 180.08,9.468 L183.192,9.468 C183.744,9.468 184.192,9.9157 184.192,10.468 L184.192,27.512 C184.192,28.0643 183.744,28.512 183.192,28.512 L180.08,28.512 Z M181.6,5.544 C180.616,5.544 179.848,5.304 179.296,4.824 C178.744,4.344 178.468,3.66 178.468,2.772 C178.468,1.956 178.744,1.296 179.296,0.792 C179.872,0.264 180.64,0 181.6,0 C182.584,0 183.352,0.252 183.904,0.756 C184.456,1.236 184.732,1.908 184.732,2.772 C184.732,3.612 184.444,4.284 183.868,4.788 C183.316,5.292 182.56,5.544 181.6,5.544 Z" id="形状"></path>
                <path d="M198.292,28.872 C196.468,28.872 194.836,28.44 193.396,27.576 C191.956,26.712 190.816,25.536 189.976,24.048 C189.16,22.56 188.752,20.868 188.752,18.972 C188.752,17.1 189.16,15.42 189.976,13.932 C190.816,12.42 191.956,11.232 193.396,10.368 C194.836,9.504 196.468,9.072 198.292,9.072 C199.996,9.072 201.556,9.384 202.972,10.008 C204.12,10.5138 205.063,11.1774 205.8,11.9986 C206.104,12.3369 206.081,12.8441 205.791,13.1942 L204.292,15.0002 C203.877,15.5003 203.098,15.4749 202.6,15.0572 C202.478,14.9547 202.35,14.8557 202.216,14.76 C201.712,14.376 201.16,14.076 200.56,13.86 C199.984,13.644 199.384,13.536 198.76,13.536 C197.776,13.536 196.9,13.776 196.132,14.256 C195.388,14.712 194.8,15.348 194.368,16.164 C193.936,16.98 193.72,17.916 193.72,18.972 C193.72,20.004 193.936,20.928 194.368,21.744 C194.824,22.536 195.436,23.184 196.204,23.688 C196.972,24.168 197.836,24.408 198.796,24.408 C199.42,24.408 200.008,24.324 200.56,24.156 C201.112,23.964 201.628,23.688 202.108,23.328 C202.287,23.2001 202.46,23.0632 202.627,22.9171 C203.104,22.4998 203.853,22.4917 204.254,22.982 L205.738,24.7934 C206.036,25.1569 206.045,25.6839 205.715,26.0183 C204.963,26.7798 204.013,27.419 202.864,27.936 C201.424,28.56 199.9,28.872 198.292,28.872 Z" id="路径"></path>
            </g>
            <g id="icon">
                <rect id="矩形" x="0" y="0" width="37" height="37"></rect>
                <g id="编组-5备份-2" transform="translate(1.000000, 0.000000)" fill-rule="nonzero">
                    <g id="编组-2">
                        <path d="M25.4113581,10.9755292 C21.8225901,7.18492291 17.9498988,5.40741876 13.7932842,5.64301675 C6.05412425,6.08167433 4.00485855,8.85410041 0,14.1893785 C2.29573479,5.80342617 9.28092157,-0.140253441 18.2991405,0.00251766881 C23.1282338,0.0789690185 27.3526781,1.68261454 30.9724734,4.81345422 C32.7522921,6.35286337 32.9471871,9.04362885 31.407781,10.8234501 C31.3078156,10.9390276 31.2017049,11.0491435 31.089909,11.1533208 C29.4693768,12.6634165 26.9342593,12.5840334 25.4113581,10.9755292 Z" id="路径" fill="#EE2229"></path>
                        <path d="M14.2224133,7.37855492 C16.5519172,7.43325156 19.5689838,8.46272043 21.5263659,9.43838983 C10.9591671,9.04252461 7.46562773,15.5398059 7.52063687,22.0076043 C7.57993068,28.9791825 12.899532,36.5921815 23.4787755,36.8196348 C17.72694,37.2611018 14.798439,36.8936661 11.0969331,35.700713 C7.39542721,34.50776 0.111317303,29.5912193 0.111317303,21.3839666 C0.111317303,13.1767138 6.07194977,7.18718242 14.2224133,7.37855492 Z" id="路径" fill="#F36D21"></path>
                        <path d="M31.4867597,32.6484938 C29.145878,34.4341193 26.4065422,35.3711887 23.2687524,35.4597019 C16.4826781,35.6511286 9.7155248,30.6296661 8.60998934,23.3961665 C11.7022047,28.3619146 15.0575534,28.8188127 18.8044432,28.8397305 C21.2439034,28.8533492 23.7413909,27.7444013 26.2969055,25.5128867 C27.9752557,24.0473311 30.5113467,24.1684437 32.0423973,25.7872693 C33.7990781,27.6446602 33.7174363,30.5744441 31.8600454,32.3311248 C31.7413045,32.4434275 31.6166993,32.5493627 31.4867597,32.6484938 Z" id="路径" fill="#F4B333"></path>
                    </g>
                </g>
            </g>
        </g>
    </g>
</svg>