<?xml version="1.0" encoding="UTF-8"?>
<svg width="240px" height="240px" viewBox="0 0 240 240" version="1.1" xmlns="http://www.w3.org/2000/svg" xmlns:xlink="http://www.w3.org/1999/xlink">
    <title>编组 7</title>
    <g id="页面-1" stroke="none" stroke-width="1" fill="none" fill-rule="evenodd">
        <g id="编组-7">
            <rect id="矩形" x="0" y="0" width="240" height="240"></rect>
            <g id="编组-5备份-2" transform="translate(5.000000, 0.000000)" fill-rule="nonzero">
                <g id="编组-2" transform="translate(0.000000, 0.000000)">
                    <path d="M179.433746,86.0575659 C152.384971,51.2792823 122.727525,34.7945443 90.4614083,36.6033519 C39.7051636,39.4486983 26.2653288,57.4320027 0,92.0392116 C15.0562694,37.6438454 60.867682,-0.909752047 120.012464,0.0163308247 C159.874155,0.640481068 193.453992,16.9571521 220.751973,48.9663439 C222.845732,51.4165659 222.626304,55.0830057 220.257896,57.2688803 L188.231869,86.7853051 C185.795592,89.0314614 181.999797,88.875679 179.754706,86.4384205 C179.642164,86.3162457 179.534744,86.1894501 179.433746,86.0575659 Z" id="路径" fill="#EE2229"></path>
                    <path d="M93.2757945,47.8608968 C108.553534,48.2156858 128.340562,54.8933217 141.17779,61.2219881 C71.8742309,58.6542137 48.9623203,100.798741 49.3230904,142.752028 C49.7119609,187.973076 84.5998542,237.354691 153.982407,238.830064 C116.259763,241.693633 97.0535818,239.310266 72.7777507,231.572193 C48.5019196,223.834119 0.730059632,191.943044 0.730059632,138.70681 C0.730059632,85.4705763 39.82207,46.6195617 93.2757945,47.8608968 Z" id="路径" fill="#F36D21"></path>
                    <path d="M225.349247,193.162142 C206.539193,216.898401 182.29111,229.180646 152.604998,230.008877 C108.099438,231.250564 63.7179691,198.678915 56.4674628,151.758918 C76.7473432,183.969176 98.7529488,186.932839 123.326424,187.068522 C143.758591,187.181338 164.811451,175.418113 186.485005,151.778846 C188.723294,149.335339 192.518696,149.170259 194.961447,151.409374 C195.058106,151.497975 195.151835,151.589722 195.242823,151.684139 L224.868773,182.665224 C227.625556,185.554624 227.832301,190.034375 225.349247,193.162142 Z" id="路径" fill="#F4B333"></path>
                </g>
            </g>
        </g>
    </g>
</svg>